<?xml version="1.0" encoding="UTF-8"?>
<svg version="1.1" xmlns="http://www.w3.org/2000/svg" width="306" height="264">
<path d="M0 0 C3.54262816 0.26012305 4.75663005 0.7350547 7.203125 3.3984375 C8.21632812 4.87183594 8.21632812 4.87183594 9.25 6.375 C9.93578125 7.35210938 10.6215625 8.32921875 11.328125 9.3359375 C13 12 13 12 14 15 C14.66 15 15.32 15 16 15 C17.56266369 16.84094627 19.0068573 18.684658 20.4375 20.625 C21.3267174 21.81615626 22.21739733 23.00622181 23.109375 24.1953125 C23.57666016 24.81825195 24.04394531 25.44119141 24.52539062 26.08300781 C26.02189724 28.02846641 27.56910609 29.91944757 29.140625 31.8046875 C29.64924072 32.42263184 30.15785645 33.04057617 30.68188477 33.67724609 C31.67092772 34.87461835 32.67116811 36.06284538 33.68334961 37.24072266 C35.61210405 39.60343819 36.96160721 41.28798818 37.12890625 44.390625 C35.43481862 48.30637081 33.13914391 51.72554488 30.75 55.25 C29.29540787 57.41816562 27.85234242 59.58913141 26.4465332 61.78930664 C25 64 25 64 23.35620117 66.14624023 C21.7412788 68.46578982 20.69846956 70.25541898 20 73 C20.84787944 77.26068925 22.73800169 80.77288481 24.8125 84.5625 C25.30943359 85.55185547 25.80636719 86.54121094 26.31835938 87.56054688 C33.3747135 101.28174129 40.33826702 108.11275567 55 113 C64.45212462 113.8439397 72.94814112 110.59126253 80.28125 104.640625 C87.51382181 97.73680645 89.27814198 90.31848667 90.2109375 80.61914062 C90.79518053 75.20481947 90.79518053 75.20481947 93 73 C95.60056461 72.17404392 98.17535613 71.43841217 100.8125 70.75 C102.45335261 70.30813601 104.09396836 69.86539176 105.734375 69.421875 C106.59611328 69.19048828 107.45785156 68.95910156 108.34570312 68.72070312 C112.76296108 67.5213152 117.16257322 66.26123396 121.5625 65 C122.43753174 64.75000244 123.31256348 64.50000488 124.21411133 64.24243164 C128.45922769 63.02678647 132.6998549 61.79769344 136.93359375 60.54296875 C137.70566162 60.31416016 138.47772949 60.08535156 139.27319336 59.84960938 C140.71086583 59.42213785 142.14792584 58.99259856 143.58422852 58.56054688 C147.0351052 57.53242361 150.45446215 56.63410581 154 56 C154.95892059 59.22909606 155.12887357 62.14565584 155.1328125 65.5078125 C155.13410156 66.57773438 155.13539063 67.64765625 155.13671875 68.75 C155.13285156 69.86375 155.12898438 70.9775 155.125 72.125 C155.12886719 73.21554688 155.13273437 74.30609375 155.13671875 75.4296875 C155.12212265 87.63202716 153.53907552 97.36777923 149.5 108.9375 C149.04952187 110.25263595 148.60015851 111.56815422 148.15185547 112.8840332 C147.23028628 115.586323 146.30379511 118.28685034 145.37402344 120.98632812 C143.2387064 127.20259847 141.1878426 133.4468758 139.125 139.6875 C137.13630647 145.70347773 135.12708394 151.70114665 132.9296875 157.64453125 C131.71569122 160.94714225 130.59902355 164.24246461 129.6171875 167.62109375 C128.29673621 172.13931811 126.79793941 176.58802569 125.2578125 181.03515625 C124.87976471 182.12768204 124.87976471 182.12768204 124.49407959 183.24227905 C123.44558185 186.26700656 122.39437967 189.29077495 121.33935547 192.31323242 C118.45122416 200.59741894 115.66134024 208.89236779 113.1796875 217.30859375 C112.86996506 218.35793846 112.86996506 218.35793846 112.5539856 219.42848206 C110.73983777 225.69139703 109.83528681 231.40965254 109.68359375 237.92578125 C109.66281265 238.67337204 109.64203156 239.42096283 109.62062073 240.19120789 C109.55555811 242.56488396 109.4964429 244.93866487 109.4375 247.3125 C109.39427354 248.92774495 109.35065796 250.54297953 109.30664062 252.15820312 C109.19992149 256.10536299 109.09853381 260.05262767 109 264 C81.11513762 264.02332542 53.23027669 264.04097741 25.34540653 264.05181217 C12.39896888 264.05697589 -0.54746272 264.06402003 -13.49389648 264.07543945 C-24.77355073 264.08538398 -36.05320059 264.09185287 -47.3328591 264.09408849 C-53.30935906 264.095396 -59.28584649 264.09848433 -65.26234245 264.10573006 C-70.8805608 264.11248663 -76.49876139 264.11461771 -82.11698341 264.11310768 C-84.18547538 264.11338417 -86.2539679 264.11539144 -88.32245636 264.11920547 C-91.13348582 264.12413705 -93.94444706 264.12300028 -96.75547791 264.12025452 C-97.585228 264.12316736 -98.41497809 264.1260802 -99.26987213 264.12908131 C-104.88587879 264.11412121 -104.88587879 264.11412121 -106 263 C-106.07398377 260.45886834 -106.08912208 257.93936204 -106.0703125 255.3984375 C-106.09834192 237.68876627 -106.49104237 221.76968687 -112.87744141 205.03857422 C-114.9293508 199.48440626 -116.67271731 193.82513532 -118.46755981 188.18380737 C-119.12159119 186.13567486 -119.7829225 184.0900545 -120.44702148 182.04516602 C-122.96405765 174.29247607 -125.34603851 166.52238005 -127.59375 158.6875 C-129.58581784 151.91446934 -131.81832341 145.21378367 -134 138.5 C-139.96169845 120.15225891 -139.96169845 120.15225891 -142.22729492 111.99365234 C-143.2744134 108.26858805 -144.47987922 104.66242046 -145.8515625 101.04296875 C-151.30804007 86.21104896 -151.8198206 72.7153302 -151 57 C-147.06466671 55.68822224 -145.54531541 56.60663371 -141.625 57.9375 C-132.41675513 60.96835447 -123.08326545 63.50476112 -113.73291016 66.05639648 C-111.35652151 66.70528234 -108.98165318 67.35976369 -106.60839844 68.02001953 C-104.09373356 68.70296032 -101.58703221 69.34888474 -99.05566406 69.96044922 C-97.16025879 70.44215576 -97.16025879 70.44215576 -95.2265625 70.93359375 C-93.50687256 71.35016235 -93.50687256 71.35016235 -91.75244141 71.77514648 C-89 73 -89 73 -87.62792969 75.46801758 C-86.97082644 78.11763571 -86.72862037 80.5239871 -86.625 83.25 C-85.86516077 92.68467044 -81.88554308 99.57723273 -75 106 C-68.16256502 111.39869616 -60.77271653 113.75626867 -52 113 C-43.54775445 111.42682401 -35.74991993 107.72664326 -30.3203125 100.8828125 C-28.72151654 98.31609683 -27.3554141 95.70382348 -26 93 C-25.29973812 91.68146143 -24.59779672 90.363814 -23.89453125 89.046875 C-23.15659634 87.63659578 -22.42091725 86.2251339 -21.6875 84.8125 C-21.3373584 84.14742432 -20.9872168 83.48234863 -20.62646484 82.79711914 C-18.49143102 78.55812376 -17.13148563 74.83066755 -17 70 C-18.03899764 67.50573488 -18.03899764 67.50573488 -19.875 65.375 C-20.83212891 64.11042969 -20.83212891 64.11042969 -21.80859375 62.8203125 C-22.53175781 61.88960937 -23.25492187 60.95890625 -24 60 C-25.67566491 57.77070132 -27.3114192 55.51561637 -28.9375 53.25 C-29.70964844 52.20328125 -30.48179688 51.1565625 -31.27734375 50.078125 C-33.23544814 46.57928994 -33.69764227 44.93595191 -33 41 C-31.19921875 38.28125 -31.19921875 38.28125 -28.6875 35.5 C-27.7596906 34.44579194 -26.83398598 33.38972854 -25.91015625 32.33203125 C-25.42820801 31.78627441 -24.94625977 31.24051758 -24.44970703 30.67822266 C-22.0733177 27.92724586 -19.85263526 25.05923175 -17.625 22.1875 C-11.81428583 14.73996494 -5.91222444 7.36706501 0 0 Z " fill="#FFFFFF" transform="translate(151,0)"/>
</svg>
